<mxfile host="65bd71144e" scale="1" border="40">
    <diagram id="XJoD8Zl0PsU6qAyMkRnc" name="Page-1">
        <mxGraphModel dx="2455" dy="738" grid="1" gridSize="10" guides="1" tooltips="1" connect="1" arrows="1" fold="1" page="1" pageScale="1" pageWidth="827" pageHeight="1169" background="#FFFFFF" math="0" shadow="0">
            <root>
                <mxCell id="0"/>
                <mxCell id="1" parent="0"/>
                <mxCell id="12" style="edgeStyle=none;html=1;strokeColor=#6600CC;strokeWidth=4;fontSize=18;fontColor=#000000;" edge="1" parent="1">
                    <mxGeometry relative="1" as="geometry">
                        <mxPoint x="350" y="270" as="sourcePoint"/>
                        <mxPoint x="470" y="270" as="targetPoint"/>
                    </mxGeometry>
                </mxCell>
                <mxCell id="5" value="VPC" style="points=[[0,0],[0.25,0],[0.5,0],[0.75,0],[1,0],[1,0.25],[1,0.5],[1,0.75],[1,1],[0.75,1],[0.5,1],[0.25,1],[0,1],[0,0.75],[0,0.5],[0,0.25]];outlineConnect=0;gradientColor=none;html=1;whiteSpace=wrap;fontSize=18;fontStyle=0;container=1;pointerEvents=0;collapsible=0;recursiveResize=0;shape=mxgraph.aws4.group;grIcon=mxgraph.aws4.group_vpc;strokeColor=#248814;fillColor=none;verticalAlign=top;align=left;spacingLeft=30;fontColor=#000000;dashed=0;" parent="1" vertex="1">
                    <mxGeometry x="140" y="157" width="500" height="243" as="geometry"/>
                </mxCell>
                <mxCell id="3" value="Fargate" style="sketch=0;points=[[0,0,0],[0.25,0,0],[0.5,0,0],[0.75,0,0],[1,0,0],[0,1,0],[0.25,1,0],[0.5,1,0],[0.75,1,0],[1,1,0],[0,0.25,0],[0,0.5,0],[0,0.75,0],[1,0.25,0],[1,0.5,0],[1,0.75,0]];outlineConnect=0;fontColor=#232F3E;gradientColor=#F78E04;gradientDirection=north;fillColor=#D05C17;strokeColor=#ffffff;dashed=0;verticalLabelPosition=bottom;verticalAlign=top;align=center;html=1;fontSize=18;fontStyle=0;aspect=fixed;shape=mxgraph.aws4.resourceIcon;resIcon=mxgraph.aws4.fargate;" parent="5" vertex="1">
                    <mxGeometry x="360" y="77" width="78" height="78" as="geometry"/>
                </mxCell>
                <mxCell id="4" value="Load Balancer" style="outlineConnect=0;dashed=0;verticalLabelPosition=bottom;verticalAlign=top;align=center;html=1;shape=mxgraph.aws3.application_load_balancer;fillColor=#F58534;gradientColor=none;fontSize=18;" parent="5" vertex="1">
                    <mxGeometry x="100" y="80" width="69" height="72" as="geometry"/>
                </mxCell>
                <mxCell id="11" style="edgeStyle=none;html=1;strokeColor=#6600CC;strokeWidth=4;fontSize=18;fontColor=#000000;" edge="1" parent="5">
                    <mxGeometry relative="1" as="geometry">
                        <mxPoint x="-60" y="115.29000000000002" as="sourcePoint"/>
                        <mxPoint x="60" y="115.29000000000002" as="targetPoint"/>
                    </mxGeometry>
                </mxCell>
                <mxCell id="10" style="edgeStyle=none;html=1;fontSize=18;fontColor=#000000;strokeColor=#6600CC;strokeWidth=4;" edge="1" parent="1">
                    <mxGeometry relative="1" as="geometry">
                        <mxPoint x="-150" y="277.79" as="sourcePoint"/>
                        <mxPoint x="-70" y="277.79" as="targetPoint"/>
                    </mxGeometry>
                </mxCell>
                <mxCell id="8" value="User" style="aspect=fixed;html=1;points=[];align=center;image;fontSize=18;image=img/lib/azure2/management_governance/User_Privacy.svg;fontColor=#000000;" vertex="1" parent="1">
                    <mxGeometry x="-250" y="230" width="71.06" height="75.5" as="geometry"/>
                </mxCell>
                <mxCell id="9" value="Internet" style="aspect=fixed;perimeter=ellipsePerimeter;html=1;align=center;shadow=0;dashed=0;spacingTop=3;image;image=img/lib/active_directory/internet_cloud.svg;fontSize=18;fontColor=#000000;" vertex="1" parent="1">
                    <mxGeometry x="-50" y="230" width="111.12" height="70" as="geometry"/>
                </mxCell>
            </root>
        </mxGraphModel>
    </diagram>
</mxfile>